<?xml version="1.0" encoding="UTF-8" standalone="no"?>
<svg
   viewBox="0 0 272.50393 178.01575"
   width="272.50394"
   height="178.01575"
   version="1.1"
   id="svg1150"
   sodipodi:docname="case_top_V11a_noSWD.svg"
   inkscape:version="1.4.3 (0d15f75, 2025-12-25)"
   xmlns:inkscape="http://www.inkscape.org/namespaces/inkscape"
   xmlns:sodipodi="http://sodipodi.sourceforge.net/DTD/sodipodi-0.dtd"
   xmlns="http://www.w3.org/2000/svg"
   xmlns:svg="http://www.w3.org/2000/svg">
  <sodipodi:namedview
     id="namedview1150"
     pagecolor="#ffffff"
     bordercolor="#000000"
     borderopacity="0.25"
     inkscape:showpageshadow="2"
     inkscape:pageopacity="0.0"
     inkscape:pagecheckerboard="0"
     inkscape:deskcolor="#d1d1d1"
     inkscape:zoom="3.5954827"
     inkscape:cx="153.94317"
     inkscape:cy="133.91804"
     inkscape:window-width="1900"
     inkscape:window-height="1186"
     inkscape:window-x="747"
     inkscape:window-y="321"
     inkscape:window-maximized="0"
     inkscape:current-layer="g1150" />
  <desc
     id="desc1">case_top_V11a.dxf - scale = 1.000000, origin = (0.000000, 0.000000), method = manual</desc>
  <defs
     id="defs4">
    <marker
       id="DistanceX"
       orient="auto"
       refX="0"
       refY="0"
       style="overflow:visible">
      <path
         d="M 3,-3 -3,3 M 0,-5 V 5"
         style="stroke:#000000;stroke-width:0.5"
         id="path1" />
    </marker>
    <pattern
       id="Hatch"
       patternUnits="userSpaceOnUse"
       width="8"
       height="8"
       x="0"
       y="0">
      <path
         d="M8 4 l-4,4"
         stroke="#000000"
         stroke-width="0.25"
         linecap="square"
         id="path2" />
      <path
         d="M6 2 l-4,4"
         stroke="#000000"
         stroke-width="0.25"
         linecap="square"
         id="path3" />
      <path
         d="M4 0 l-4,4"
         stroke="#000000"
         stroke-width="0.25"
         linecap="square"
         id="path4" />
    </pattern>
    <symbol
       id="*MODEL_SPACE" />
    <symbol
       id="*PAPER_SPACE" />
  </defs>
  <g
     inkscape:groupmode="layer"
     inkscape:label="0"
     id="g1150"
     transform="translate(378.14173,-717.92126)">
    <path
       d="m -111.11811,729.44881 a 6.047245,6.047245 0 0 0 -12.09449,0 6.047245,6.047245 0 0 0 12.09449,0 z"
       style="fill:none;stroke:#ff0000;stroke-width:0.377953;stroke-dasharray:none;stroke-opacity:1"
       id="path1138" />
    <path
       d="m -370.3937,718.11024 a 7.559055,7.559055 0 0 0 -7.55906,7.55905 v 162.51969 a 7.559055,7.559055 0 0 0 7.55906,7.55905 h 196.53543 49.13386 11.33858 a 7.559055,7.559055 0 0 0 7.55906,-7.55905 v -22.67717 a 3.779528,3.779528 0 0 0 -3.77953,-3.77953 h -49.13386 a 3.779528,3.779528 0 0 1 -3.77953,-3.77953 v -26.45669 a 3.779528,3.779528 0 0 1 3.77953,-3.77953 h 49.13386 a 3.779528,3.779528 0 0 0 3.77953,-3.77953 v -98.26771 a 7.559055,7.559055 0 0 0 -7.55906,-7.55905 z"
       style="fill:none;stroke:#ff0000;stroke-width:0.377953;stroke-dasharray:none;stroke-opacity:1"
       id="path1140" />
    <path
       d="m -360.56693,729.44881 a 6.047245,6.047245 0 0 0 -12.09449,0 6.047245,6.047245 0 0 0 12.09449,0 z"
       style="fill:none;stroke:#ff0000;stroke-width:0.377953;stroke-dasharray:none;stroke-opacity:1"
       id="path1141" />
    <path
       d="m -178.87255,871.53279 a 13.22835,13.22835 0 0 0 -26.4567,0 13.22835,13.22835 0 0 0 26.4567,0 z"
       style="fill:none;stroke:#ff0000;stroke-width:0.377953;stroke-dasharray:none;stroke-opacity:1"
       id="path1142" />
    <path
       d="m -319.16003,810.41409 a 5.669295,5.669295 0 0 0 -11.33859,0 5.669295,5.669295 0 0 0 11.33859,0 z"
       style="fill:none;stroke:#ff0000;stroke-width:0.377953;stroke-dasharray:none;stroke-opacity:1"
       id="path1143" />
    <path
       d="m -115.21652,770.81456 a 20.787402,20.787402 0 0 0 -41.5748,0 20.787402,20.787402 0 0 0 41.5748,0 z"
       style="fill:none;stroke:#ff0000;stroke-width:0.377953;stroke-dasharray:none;stroke-opacity:1"
       id="path1144" />
    <path
       d="m -111.11811,884.40944 a 6.047245,6.047245 0 0 0 -12.09449,0 6.047245,6.047245 0 0 0 12.09449,0 z"
       style="fill:none;stroke:#ff0000;stroke-width:0.377953;stroke-dasharray:none;stroke-opacity:1"
       id="path1145" />
    <path
       d="m -360.56693,884.40944 a 6.047245,6.047245 0 0 0 -12.09449,0 6.047245,6.047245 0 0 0 12.09449,0 z"
       style="fill:none;stroke:#ff0000;stroke-width:0.377953;stroke-dasharray:none;stroke-opacity:1"
       id="path1146" />
    <path
       d="m -255.97492,871.53279 a 13.228346,13.228346 0 0 0 -26.45669,0 13.228346,13.228346 0 0 0 26.45669,0 z"
       style="fill:none;stroke:#ff0000;stroke-width:0.377953;stroke-dasharray:none;stroke-opacity:1"
       id="path1147" />
    <path
       d="m -255.97492,871.53279 a 13.228346,13.228346 0 0 0 -26.45669,0 13.228346,13.228346 0 0 0 26.45669,0 z"
       style="fill:none;stroke:#ff0000;stroke-width:0.377953;stroke-dasharray:none;stroke-opacity:1"
       id="path1148" />
    <path
       d="m -217.42374,871.53279 a 13.228346,13.228346 0 0 0 -26.45669,0 13.228346,13.228346 0 0 0 26.45669,0 z"
       style="fill:none;stroke:#ff0000;stroke-width:0.377953;stroke-dasharray:none;stroke-opacity:1"
       id="path1149" />
    <path
       d="m -255.97492,871.53279 a 13.228346,13.228346 0 0 0 -26.45669,0 13.228346,13.228346 0 0 0 26.45669,0 z"
       style="fill:none;stroke:#ff0000;stroke-width:0.377953;stroke-dasharray:none;stroke-opacity:1"
       id="path1150" />
  </g>
</svg>
